<svg width="3908" height="3846" viewBox="0 0 3908 3846" fill="none" xmlns="http://www.w3.org/2000/svg">
<g style="mix-blend-mode:multiply">
<path d="M2058.24 3798.09C2129.87 3657.7 2161.38 3492.96 2152.79 3303.87C2121.27 3285.25 2036.3 3248 1948.53 3248C1860.75 3248 1764.49 3273.79 1727.33 3286.68C1644.25 3341.12 1559.73 3362.6 1473.78 3351.14C1387.83 3336.82 1303.31 3316.76 1220.23 3290.98C1162.93 3273.79 1105.63 3259.46 1048.33 3248C993.891 3233.68 940.889 3232.25 889.318 3243.71C915.103 3252.3 939.456 3263.76 962.376 3278.09C985.296 3289.55 1006.78 3302.44 1026.84 3316.76C1018.24 3333.95 1009.65 3341.12 1001.05 3338.25L983.864 3329.66C972.404 3323.93 966.674 3329.66 966.674 3346.85C1061.22 3452.85 1171.52 3544.53 1297.58 3621.89C1423.64 3702.11 1585.52 3742.22 1783.2 3742.22C1786.07 3779.46 1803.26 3799.52 1834.77 3802.38C1869.15 3808.11 1893.51 3822.44 1907.83 3845.36C1939.35 3825.3 1963.7 3816.71 1980.89 3819.57C2000.94 3822.44 2026.73 3815.28 2058.24 3798.09Z" fill="black"/>
</g>
</svg>
