<svg width="3908" height="3846" viewBox="0 0 3908 3846" fill="none" xmlns="http://www.w3.org/2000/svg">
<g style="mix-blend-mode:multiply">
<path d="M1579.01 1170.05C1630.58 1172.91 1683.58 1162.89 1738.02 1139.97C1797.02 1138.01 1937.82 1132.1 2028.97 1124.14C2120.13 1116.17 2208.19 1114.18 2240.83 1114.18C2269.48 1102.72 2296.7 1092.69 2322.48 1084.1C2348.27 1072.64 2371.19 1056.88 2391.24 1036.82C2333.94 927.954 2246.56 850.599 2129.09 804.759C2011.63 758.919 1888.43 718.809 1759.51 684.429C1748.05 707.349 1740.88 725.971 1738.02 740.296C1738.02 754.621 1740.88 776.109 1746.61 804.759C1574.71 873.519 1411.41 916.495 1256.7 933.685C1104.85 948.01 944.411 966.632 775.375 989.552C795.43 1006.74 814.053 1025.36 831.243 1045.42C851.298 1065.48 871.353 1086.96 891.408 1109.88C937.248 1161.45 984.521 1210.16 1033.23 1256C1084.8 1298.97 1143.53 1319.03 1209.42 1316.16C1252.4 1313.3 1286.78 1296.11 1312.56 1264.59C1341.21 1230.21 1377.03 1205.86 1420 1191.54C1477.3 1171.48 1530.31 1164.32 1579.01 1170.05Z" fill="black"/>
</g>
</svg>
