<svg width="3908" height="3846" viewBox="0 0 3908 3846" fill="none" xmlns="http://www.w3.org/2000/svg">
<g style="mix-blend-mode:multiply">
<path d="M2085.27 1873.07C2148.3 1947.56 2158.8 1966.51 2218.97 2052.46C2238.97 2047.73 2285.02 2037.14 2309.21 2032.58C2333.41 2028.03 2442.49 1966.58 2494.01 1936.43C2657.31 1824.69 2807.73 1712.95 2945.25 1601.22C3082.77 1489.48 3241.78 1383.48 3422.27 1283.2C3428 1260.28 3432.3 1237.36 3435.16 1214.44C3438.03 1188.66 3443.76 1165.74 3452.35 1145.68C3423.7 1068.33 3367.84 1013.89 3284.75 982.376C3204.53 950.861 3117.15 932.238 3022.6 926.508C2928.06 920.778 2846.4 922.211 2777.64 930.806C2774.78 970.916 2781.94 999.566 2799.13 1016.76C2816.32 1033.95 2836.38 1049.7 2859.3 1064.03C2873.62 1072.62 2887.95 1082.65 2902.27 1094.11C2916.6 1105.57 2926.62 1119.9 2932.35 1137.09C2906.57 1225.9 2856.43 1304.69 2781.94 1373.45C2710.32 1439.35 2631.53 1500.94 2545.58 1558.24C2459.63 1615.54 2380.84 1677.14 2309.21 1743.04L2085.27 1873.07Z" fill="black"/>
</g>
</svg>
