<svg width="3908" height="3846" viewBox="0 0 3908 3846" fill="none" xmlns="http://www.w3.org/2000/svg">
<g style="mix-blend-mode:multiply">
<path d="M1538.51 1871.63C1618.73 1871.63 1680.33 1845.85 1723.3 1794.28C1686.06 1734.11 1597.24 1643.87 1525.62 1618.08C1456.86 1592.3 1382.37 1576.54 1302.15 1570.81C1224.79 1562.21 1154.6 1559.35 1091.57 1562.21C1077.24 1573.67 1072.66 1609.21 1072.66 1637.86C1058.33 1657.92 1005.62 2022.05 1005.62 2030.64C1008.48 2039.24 1015.65 2049.27 1027.11 2060.73L1044.3 2077.91L786.446 2507.67C700.495 2648.05 605.95 2782.71 502.81 2911.63C402.534 3037.69 286.501 3150.86 154.711 3251.14C143.251 3251.14 133.223 3249.71 124.628 3246.84L98.8429 3238.24C84.5179 3232.51 70.1928 3229.65 55.8677 3229.65C44.4077 3226.78 25.7851 3231.08 0 3242.54C14.3251 3271.19 27.2176 3289.82 38.6777 3298.41C53.0027 3307.01 65.8953 3322.76 77.3553 3345.68C94.5454 3325.63 110.303 3319.9 124.628 3328.49C138.953 3334.22 153.278 3342.82 167.603 3354.28L201.983 3388.66C216.308 3397.25 232.066 3401.55 249.256 3401.55C280.771 3375.77 312.286 3352.85 343.801 3332.79C375.317 3309.87 406.832 3288.38 438.347 3268.33C492.782 3233.95 537.19 3203.86 571.57 3178.08C605.95 3149.43 617.41 3120.78 605.95 3092.13C634.6 3086.4 650.358 3074.94 653.223 3057.75C656.088 3040.56 680.44 3026.23 726.281 3014.77C711.956 3003.31 717.686 2984.69 743.471 2958.91C754.45 2945.84 786.664 2912.86 827.683 2885.51C878.956 2851.33 900.414 2840.12 906.776 2842.87C903.911 2837.14 903.911 2825.68 906.776 2808.49C909.641 2797.03 909.641 2787.01 906.776 2778.41C906.776 2766.95 895.316 2758.36 872.396 2752.63C883.856 2752.63 892.451 2754.06 898.181 2756.92C906.776 2759.79 913.939 2762.65 919.669 2765.52C939.724 2776.98 955.482 2776.98 966.942 2765.52C966.942 2748.33 962.644 2739.73 954.049 2739.73C948.319 2736.87 939.724 2736.87 928.264 2739.73C919.669 2742.6 909.641 2744.03 898.181 2744.03C889.586 2741.17 886.721 2728.27 889.586 2705.35C915.371 2696.76 933.994 2692.46 945.454 2692.46C959.779 2692.46 974.104 2695.33 988.429 2701.06C1002.75 2703.92 1014.21 2705.35 1022.81 2705.35C1071.51 2653.78 1114.49 2597.91 1151.73 2537.75C1188.98 2474.72 1227.66 2413.12 1267.77 2352.96C1307.88 2289.93 1355.15 2236.92 1409.59 2193.95C1403.86 2168.16 1408.15 2143.81 1422.48 2120.89C1436.8 2097.97 1453.99 2075.05 1474.05 2052.13C1494.1 2026.34 1512.73 1999.13 1529.92 1970.48C1547.11 1941.83 1549.97 1908.88 1538.51 1871.63Z" fill="black"/>
</g>
</svg>
