<svg width="3908" height="3846" viewBox="0 0 3908 3846" fill="none" xmlns="http://www.w3.org/2000/svg">
<g style="mix-blend-mode:multiply">
<path d="M3882.22 3289.65C3893.68 3283.92 3902.27 3273.89 3908 3259.56C3905.14 3182.21 3887.95 3120.61 3856.43 3074.77C3824.92 3026.06 3789.1 2983.09 3748.99 2945.84C3708.88 2908.6 3673.07 2867.06 3641.56 2821.22C3498.31 2752.46 3357.92 2680.83 3220.4 2606.34C3082.88 2531.85 2955.39 2447.33 2837.92 2352.79C2723.32 2255.38 2625.91 2139.34 2545.69 2004.69L2360.9 1811.3C2312.19 1796.97 2263.49 1781.22 2214.78 1764.03C2166.08 1743.97 2127.4 1706.73 2098.75 1652.29L2085.86 1880.06C2148.89 1954.55 2210.48 2034.77 2270.65 2120.72C2330.81 2203.81 2379.52 2282.59 2416.76 2357.08C2416.76 2345.62 2421.06 2341.33 2429.66 2344.19C2446.85 2404.36 2471.2 2454.49 2502.71 2494.6C2534.23 2531.85 2564.31 2569.1 2592.96 2606.34C2624.48 2643.59 2643.1 2690.86 2648.83 2748.16C2709 2773.94 2756.27 2818.35 2790.65 2881.38C2825.03 2944.41 2850.81 3000.28 2868 3048.98C2888.06 3046.12 2903.82 3051.85 2915.28 3066.17C2955.39 3109.15 3001.23 3156.42 3052.8 3207.99C3104.37 3256.7 3163.1 3299.67 3229 3336.92C3297.76 3374.16 3377.98 3395.65 3469.66 3401.38C3532.69 3384.19 3587.12 3375.6 3632.96 3375.6C3681.67 3372.73 3738.97 3369.87 3804.86 3367C3799.13 3344.08 3800.57 3329.76 3809.16 3324.03C3817.76 3315.43 3829.21 3308.27 3843.54 3302.54C3857.87 3299.67 3870.76 3295.38 3882.22 3289.65Z" fill="black"/>
</g>
</svg>
