<svg width="3908" height="3846" viewBox="0 0 3908 3846" fill="none" xmlns="http://www.w3.org/2000/svg">
<g style="mix-blend-mode:multiply">
<path d="M1534.36 1872.27C1614.58 1872.27 1676.18 1846.48 1719.15 1794.91C1681.91 1734.75 1593.09 1644.5 1521.47 1618.71C1452.71 1592.93 1378.22 1577.17 1297.99 1571.44C1220.64 1562.84 1150.45 1559.98 1087.42 1562.84C1073.09 1574.3 1065.93 1594.36 1065.93 1623.01C1065.93 1648.8 1054.47 1664.55 1031.55 1670.28C931.274 1698.93 829.566 1726.15 726.425 1751.94C626.15 1777.72 525.874 1804.94 425.599 1833.59C382.624 1810.67 333.919 1792.05 279.483 1777.72C227.913 1760.53 169.18 1750.5 103.285 1747.64C109.015 1759.1 113.313 1770.56 116.178 1782.02C121.908 1790.61 127.638 1800.64 133.368 1812.1C159.153 1869.4 189.236 1926.7 223.616 1984C260.861 2041.3 309.566 2087.14 369.731 2121.52C432.762 2155.9 514.414 2164.5 614.69 2147.31C643.34 2101.47 679.153 2072.82 722.128 2061.36C767.968 2047.03 816.673 2037 868.243 2031.27C922.679 2022.68 1361.62 1920.61 1410.33 1900.56L1534.36 1872.27Z" fill="black"/>
</g>
</svg>
